<?xml version="1.0" standalone="no"?><!DOCTYPE svg PUBLIC "-//W3C//DTD SVG 1.1//EN" "http://www.w3.org/Graphics/SVG/1.1/DTD/svg11.dtd"><svg t="1681191877273" class="icon" viewBox="0 0 1262 1024" version="1.1" xmlns="http://www.w3.org/2000/svg" p-id="5822" width="157.75" height="128" xmlns:xlink="http://www.w3.org/1999/xlink"><path d="M1136.047896 339.882267C1112.706905 143.149344 1017.345943-0.2756 900.268988 0.0004L358.6862 1.290399c-117.106954 0.276-211.762917 144.067944-234.275909 340.954867C42.146324 391.197247-0.27366 490.974208 0.00134 606.394163c0.184 85.699967 24.016991 162.533937 69.902973 216.394916l0.46 191.364925 212.804916-0.49-0.276-112.077956 697.337728-1.687 0.276 112.076957 212.805917-0.521-0.46-191.364925c45.639982-54.014979 69.134973-131.001949 68.919973-216.700916-0.245-115.205955-43.185983-214.890916-125.725951-263.506897zM358.9312 74.320371l541.583788-1.289c75.392971-0.184 141.491945 101.98596 166.489935 240.563907-11.532995-2.299999-23.648991-3.709999-36.193986-4.446999 0-0.307 0.338-0.92 0.062-0.889999-101.89396 0.246-70.055973 0.154-141.799944 0.337999s-46.559982 0.092-118.118954 0.276l-523.669796 1.257c-19.016993 0.031-36.990986 2.085999-53.983979 5.551998C217.807255 176.920331 283.538229 74.473371 358.9312 74.320371zM218.298255 702.030126c-46.590982 0.092-84.317967-42.787983-84.440967-95.973963-0.123-53.093979 37.419985-96.249962 83.980967-96.372962 46.376982-0.092 84.103967 42.879983 84.256967 95.974962 0.123 53.277979-37.389985 96.249962-83.796967 96.371963z m656.972743-18.126993l-488.365809 0.583c-76.12997 0.184-77.78597-131.124949-0.307-131.308949l488.366809-1.166c71.219972-0.184 71.527972 131.707949 0.306 131.891949z m168.667934 16.133994c-46.468982 0.122-84.195967-42.757983-84.318967-95.943963-0.122-53.093979 37.419985-96.279962 83.858967-96.372962 46.499982-0.122 84.256967 42.849983 84.379967 95.973962 0.03 53.278979-37.450985 96.280962-83.919967 96.342963z" p-id="5823"></path></svg>