<?xml version="1.0" standalone="no"?><!DOCTYPE svg PUBLIC "-//W3C//DTD SVG 1.1//EN" "http://www.w3.org/Graphics/SVG/1.1/DTD/svg11.dtd"><svg t="1681462036280" class="icon" viewBox="0 0 1024 1024" version="1.1" xmlns="http://www.w3.org/2000/svg" p-id="4427" xmlns:xlink="http://www.w3.org/1999/xlink" width="128" height="128"><path d="M516.09088 61.64992c-110.88384 0-201.09312 89.63072-201.09312 199.79776 0 70.74304 37.90848 135.95136 98.21696 171.69408l-19.59424 157.40416H229.64224c-34.16064 0-61.95712 27.68896-61.95712 61.71648V781.26592c0 34.03264 27.79648 61.72672 61.95712 61.72672h564.70016c34.17088 0 61.97248-27.68896 61.97248-61.72672V652.2624c0-34.03264-27.8016-61.71648-61.97248-61.71648h-156.20096l-19.54816-157.17888c60.53376-35.69152 98.5856-100.98176 98.5856-171.92448 0.00512-110.16192-90.20928-199.79264-201.088-199.79264zM831.78496 893.57824H192.21504a34.38592 34.38592 0 0 0 0 68.77184h639.56992a34.38592 34.38592 0 0 0 0-68.77184z" fill="" p-id="4428"></path></svg>