<?xml version="1.0" standalone="no"?><!DOCTYPE svg PUBLIC "-//W3C//DTD SVG 1.1//EN" "http://www.w3.org/Graphics/SVG/1.1/DTD/svg11.dtd"><svg t="1681193128655" class="icon" viewBox="0 0 1024 1024" version="1.1" xmlns="http://www.w3.org/2000/svg" p-id="8338" xmlns:xlink="http://www.w3.org/1999/xlink" width="128" height="128"><path d="M699 662.2c0 4.6-0.1 9.3-0.3 14l-0.4 10.3H318.9l-0.4-10.2c-0.2-4.6-0.3-9.3-0.3-14 0-143.4 85.3-363.1 190.4-363.1 105.1-0.1 190.4 219.6 190.4 363zM510.2 295.3c55.9 0 101.4-44.6 101.4-99.3 0-54.8-45.5-99.3-101.4-99.3-55.9 0-101.4 44.6-101.4 99.3 0 54.7 45.5 99.3 101.4 99.3z m226 364.8c0 5-0.1 10.1-0.3 15.1l-0.5 11.2h222.8l0.4-10.3c0.2-4.6 0.3-9.3 0.3-14 0-143.4-85.3-363.1-190.4-363.1-42.5 0-82.7 18.4-116.3 53.2l-6 6.3 4.9 7.2c32.4 47.4 85.1 219.4 85.1 294.4z m34.1-364.8c55.9 0 101.4-44.6 101.4-99.3 0-54.8-45.5-99.3-101.4-99.3-55.9 0-101.4 44.6-101.4 99.3 0 54.7 45.5 99.3 101.4 99.3zM65.7 686.4h222.8l-0.5-11.2c-0.2-5-0.3-10.1-0.3-15.1 0-75 52.7-247 85-294.3l4.9-7.2-6.1-6.3c-33.5-34.8-73.7-53.2-116.2-53.2-105.1 0-190.4 219.7-190.4 363.1 0 4.6 0.1 9.3 0.3 14l0.5 10.2z m188-391.1c55.9 0 101.4-44.6 101.4-99.3 0-54.8-45.5-99.3-101.4-99.3-55.9 0-101.4 44.6-101.4 99.3-0.1 54.7 45.4 99.3 101.4 99.3zM64.9 719.6v207.7H960V719.6H64.9z" p-id="8339"></path></svg>